<?xml version="1.0" encoding="utf-8"?>
<svg version="1.1" id="_图层_1" xmlns="http://www.w3.org/2000/svg" xmlns:xlink="http://www.w3.org/1999/xlink" x="0px" y="0px"
	 viewBox="0 0 74.4 19.8" style="enable-background:new 0 0 74.4 19.8;" xml:space="preserve">
<style type="text/css">
	.st0{fill:#415FFF;}
</style>
<g>
	<path class="st0" d="M67.2,5.4h-6.4c-6.6,0-7.2,5.4-7.2,7.1c0,1.7,0.6,7.1,7.2,7.1h6.4c6.6,0,7.2-5.4,7.2-7.1
		C74.4,10.8,73.8,5.4,67.2,5.4 M67.2,16.3h-6.4c-3.6,0-3.9-2.9-3.9-3.8c0-0.9,0.3-3.8,3.9-3.8h6.4c3.6,0,3.9,2.9,3.9,3.8
		C71.1,13.4,70.8,16.3,67.2,16.3"/>
	<path class="st0" d="M52.3,5.7h-2.1c-0.9,0-1.1,0.2-1.4,0.7c-0.3,0.5-6.3,9.6-6.3,9.6c-0.2,0.3-0.4,0.4-0.6,0.4
		c-0.2,0-0.4-0.1-0.6-0.4c0,0-5.9-9-6.3-9.6c-0.3-0.5-0.5-0.7-1.4-0.7h-2.1c-0.5,0-0.7,0.4-0.4,0.8c0.3,0.5,7.1,10.7,7.1,10.7
		c1.1,1.6,1.9,2.3,3.7,2.3c1.8,0,2.6-0.7,3.7-2.3c0,0,6.8-10.3,7.1-10.7C53,6.1,52.7,5.7,52.3,5.7"/>
	<path class="st0" d="M24.7,6.6c0-0.6,0.2-0.9,0.9-0.9h1.6c0.6,0,0.9,0.2,0.9,0.9v12.1c0,0.6-0.2,0.9-0.9,0.9h-1.6
		c-0.6,0-0.9-0.2-0.9-0.9V6.6z"/>
	<path class="st0" d="M24.6,2.9c-0.5-0.5-0.5-0.9,0-1.4l1.1-1.1c0.5-0.5,0.9-0.5,1.4,0l1.1,1.1c0.5,0.5,0.5,0.9,0,1.4L27.1,4
		c-0.5,0.5-0.9,0.5-1.4,0L24.6,2.9z"/>
	<path class="st0" d="M21.3,5.7h-2.1c-0.9,0-1.1,0.2-1.4,0.7c-0.3,0.5-6.3,9.6-6.3,9.6c-0.2,0.3-0.4,0.4-0.6,0.4
		c-0.2,0-0.4-0.1-0.6-0.4c0,0-5.9-9-6.3-9.6C3.7,5.9,3.5,5.7,2.6,5.7H0.5C0,5.7-0.2,6.1,0.1,6.5C0.4,7,7.2,17.3,7.2,17.3
		c1.1,1.6,1.9,2.3,3.7,2.3c1.8,0,2.6-0.7,3.7-2.3c0,0,6.8-10.3,7.1-10.7C22,6.1,21.9,5.7,21.3,5.7"/>
</g>
</svg>
